M48
;DRILL file {KiCad 4.0.6} date 04/05/18 00:59:03
;FORMAT={-:-/ absolute / inch / decimal}
FMAT,2
INCH,TZ
T1C0.012
T2C0.031
T3C0.039
T4C0.040
%
G90
G05
M72
T1
X4.82Y-4.58
X4.82Y-4.6
X4.8331Y-3.8695
X4.84Y-4.58
X4.84Y-4.6
X4.8425Y-3.905
X4.86Y-3.42
X4.86Y-4.58
X4.86Y-4.6
X4.88Y-4.58
X4.88Y-4.6
X4.8825Y-3.9225
X4.8875Y-3.4625
X4.8875Y-3.485
X4.9075Y-3.4625
X4.9075Y-3.485
X4.91Y-3.94
X4.9275Y-3.4625
X4.9275Y-3.485
X4.9305Y-3.7773
X4.9305Y-3.8285
X4.945Y-3.9075
X4.9457Y-3.6901
X4.9475Y-3.4625
X4.9475Y-3.485
X4.955Y-3.31
X4.9675Y-3.4625
X4.9675Y-3.485
X4.9677Y-3.8275
X4.9817Y-3.7773
X4.9875Y-3.4625
X4.9875Y-3.485
X5.01Y-3.935
X5.0325Y-3.905
X5.0329Y-3.8521
X5.0347Y-3.8348
X5.055Y-3.87
X5.06Y-3.835
X5.0675Y-3.7125
X5.0675Y-3.7325
X5.0675Y-3.7525
X5.075Y-3.87
X5.075Y-3.89
X5.08Y-3.835
X5.0875Y-3.6925
X5.0875Y-3.7125
X5.0875Y-3.7325
X5.0875Y-3.7525
X5.095Y-3.85
X5.095Y-3.87
X5.095Y-3.89
X5.1075Y-3.6725
X5.1075Y-3.6925
X5.1075Y-3.7125
X5.1075Y-3.7325
X5.1075Y-3.7525
X5.115Y-3.87
X5.115Y-3.89
X5.115Y-4.95
X5.1183Y-4.8607
X5.1275Y-3.6725
X5.1275Y-3.6925
X5.1275Y-3.7125
X5.14Y-4.5369
X5.1475Y-3.6725
X5.1475Y-3.6925
X5.1475Y-3.7125
X5.1675Y-3.6725
X5.1675Y-3.6925
X5.1675Y-3.7125
X5.1875Y-3.6725
X5.1875Y-3.6925
X5.225Y-4.845
X5.225Y-4.88
X5.2425Y-4.8275
X5.2425Y-4.845
X5.2425Y-4.8625
X5.2425Y-4.88
X5.26Y-4.8275
X5.2775Y-4.8275
X5.295Y-4.79
X5.295Y-4.81
X5.295Y-4.8275
X5.3475Y-3.165
X5.49Y-3.305
X5.52Y-5.03
X5.52Y-5.05
X5.52Y-5.07
X5.54Y-5.03
X5.54Y-5.05
X5.54Y-5.07
X5.56Y-5.03
X5.56Y-5.05
X5.56Y-5.07
X5.565Y-2.855
X5.58Y-5.03
X5.58Y-5.05
X5.58Y-5.07
X5.61Y-3.08
X5.61Y-3.1
X5.61Y-3.12
X5.63Y-3.08
X5.63Y-3.1
X5.63Y-3.12
X5.63Y-4.0075
X5.65Y-3.08
X5.65Y-3.1
X5.65Y-3.12
X5.67Y-3.08
X5.67Y-3.1
X5.67Y-3.12
X5.99Y-1.785
X5.99Y-1.805
X6.005Y-4.3625
X6.0075Y-3.145
X6.01Y-1.785
X6.01Y-1.805
X6.03Y-1.785
X6.03Y-1.805
X6.05Y-1.785
X6.05Y-1.805
X6.07Y-1.785
X6.07Y-1.805
T2
X6.39Y-4.81
X6.49Y-4.81
X6.59Y-4.81
T3
X4.69Y-4.075
X4.69Y-4.175
X4.71Y-2.325
X4.81Y-2.325
X4.91Y-2.325
X5.01Y-2.325
X5.35Y-3.91
X5.35Y-4.01
X6.5Y-2.685
X6.5Y-2.785
X6.5Y-2.885
X6.535Y-3.905
X6.535Y-4.005
X6.535Y-4.105
T4
X5.49Y-2.805
X5.49Y-2.905
X5.49Y-3.005
X5.49Y-3.105
X5.49Y-3.205
X5.49Y-3.305
X5.49Y-3.405
X5.49Y-3.505
X5.49Y-3.605
X5.49Y-3.705
X5.49Y-3.805
X5.49Y-3.905
X5.49Y-4.005
X5.49Y-4.105
X5.49Y-4.205
X6.09Y-2.805
X6.09Y-2.905
X6.09Y-3.005
X6.09Y-3.105
X6.09Y-3.205
X6.09Y-3.305
X6.09Y-3.405
X6.09Y-3.505
X6.09Y-3.605
X6.09Y-3.705
X6.09Y-3.805
X6.09Y-3.905
X6.09Y-4.005
X6.09Y-4.105
X6.09Y-4.205
T0
M30
