G04 #@! TF.FileFunction,Soldermask,Top*
%FSLAX46Y46*%
G04 Gerber Fmt 4.6, Leading zero omitted, Abs format (unit mm)*
G04 Created by KiCad (PCBNEW 4.0.6) date 04/05/18 00:59:02*
%MOMM*%
%LPD*%
G01*
G04 APERTURE LIST*
%ADD10C,0.100000*%
%ADD11C,5.000000*%
%ADD12C,2.390000*%
%ADD13C,3.450000*%
%ADD14O,2.032000X1.727200*%
%ADD15R,1.250000X1.000000*%
%ADD16R,0.750000X0.800000*%
%ADD17R,0.800000X0.750000*%
%ADD18R,0.800000X0.800000*%
%ADD19R,1.700000X1.700000*%
%ADD20O,1.700000X1.700000*%
%ADD21R,2.500000X3.250000*%
%ADD22R,3.250000X2.500000*%
%ADD23R,0.900000X0.500000*%
%ADD24R,0.500000X0.900000*%
%ADD25C,1.520000*%
%ADD26R,1.520000X1.520000*%
%ADD27R,0.850000X0.300000*%
%ADD28R,0.300000X0.850000*%
%ADD29R,1.300000X1.300000*%
%ADD30R,0.600000X0.250000*%
%ADD31R,0.300000X1.200000*%
%ADD32R,0.250000X2.400000*%
%ADD33R,0.300000X0.900000*%
G04 APERTURE END LIST*
D10*
D11*
X167640000Y-129540000D03*
D12*
X155193000Y-124339000D03*
D13*
X155193000Y-60919000D03*
X139193000Y-116119000D03*
D14*
X139446000Y-71247000D03*
X139446000Y-73787000D03*
X139446000Y-76327000D03*
X139446000Y-78867000D03*
X139446000Y-81407000D03*
X139446000Y-83947000D03*
X139446000Y-86487000D03*
X139446000Y-89027000D03*
X139446000Y-91567000D03*
X139446000Y-94107000D03*
X139446000Y-96647000D03*
X139446000Y-99187000D03*
X139446000Y-101727000D03*
X139446000Y-104267000D03*
X139446000Y-106807000D03*
X154686000Y-71247000D03*
X154686000Y-73787000D03*
X154686000Y-76327000D03*
X154686000Y-78867000D03*
X154686000Y-81407000D03*
X154686000Y-83947000D03*
X154686000Y-86487000D03*
X154686000Y-89027000D03*
X154686000Y-91567000D03*
X154686000Y-94107000D03*
X154686000Y-96647000D03*
X154686000Y-99187000D03*
X154686000Y-101727000D03*
X154686000Y-104267000D03*
X154686000Y-106807000D03*
D15*
X121285000Y-95504000D03*
X121285000Y-93504000D03*
X123952000Y-89694000D03*
X123952000Y-91694000D03*
D16*
X127000000Y-91797000D03*
X127000000Y-90297000D03*
X125603000Y-91821000D03*
X125603000Y-90321000D03*
D15*
X132842000Y-94885000D03*
X132842000Y-96885000D03*
D16*
X130937000Y-96762000D03*
X130937000Y-95262000D03*
D15*
X125222000Y-114935000D03*
X125222000Y-116935000D03*
D17*
X129933000Y-127381000D03*
X131433000Y-127381000D03*
D15*
X136525000Y-125825000D03*
X136525000Y-123825000D03*
X134493000Y-125825000D03*
X134493000Y-123825000D03*
D18*
X125095000Y-109855000D03*
X125095000Y-108255000D03*
X122555000Y-109855000D03*
X122555000Y-108255000D03*
D19*
X119126000Y-103505000D03*
D20*
X119126000Y-106045000D03*
D19*
X119634000Y-59055000D03*
D20*
X122174000Y-59055000D03*
X124714000Y-59055000D03*
X127254000Y-59055000D03*
D19*
X165100000Y-73279000D03*
D20*
X165100000Y-70739000D03*
X165100000Y-68199000D03*
D21*
X135080000Y-89662000D03*
X129080000Y-89662000D03*
D22*
X130556000Y-121237000D03*
X130556000Y-115237000D03*
D23*
X125095000Y-105410000D03*
X125095000Y-106910000D03*
X122555000Y-105410000D03*
X122555000Y-106910000D03*
X125603000Y-99973000D03*
X125603000Y-101473000D03*
X127254000Y-101449000D03*
X127254000Y-99949000D03*
D24*
X127405000Y-125476000D03*
X128905000Y-125476000D03*
X128881000Y-123952000D03*
X127381000Y-123952000D03*
X122277000Y-98552000D03*
X120777000Y-98552000D03*
X122277000Y-100076000D03*
X120777000Y-100076000D03*
D19*
X135890000Y-101854000D03*
D20*
X135890000Y-99314000D03*
D25*
X164846000Y-122174000D03*
X167386000Y-122174000D03*
D26*
X162306000Y-122174000D03*
D27*
X123934714Y-95343000D03*
X123934714Y-95843000D03*
X123934714Y-96343000D03*
X123934714Y-96843000D03*
X123934714Y-97343000D03*
X123934714Y-97843000D03*
D28*
X124634714Y-98543000D03*
X125134714Y-98543000D03*
X125634714Y-98543000D03*
X126134714Y-98543000D03*
X126634714Y-98543000D03*
X127134714Y-98543000D03*
D27*
X127834714Y-97843000D03*
X127834714Y-97343000D03*
X127834714Y-96843000D03*
X127834714Y-96343000D03*
X127834714Y-95843000D03*
X127834714Y-95343000D03*
D28*
X127134714Y-94643000D03*
X126634714Y-94643000D03*
X126134714Y-94643000D03*
X125634714Y-94643000D03*
X125134714Y-94643000D03*
X124634714Y-94643000D03*
D29*
X126534714Y-97243000D03*
X126534714Y-95943000D03*
X125234714Y-97243000D03*
X125234714Y-95943000D03*
D30*
X130784000Y-123952000D03*
D31*
X132224000Y-125302000D03*
D30*
X130784000Y-124952000D03*
X130784000Y-124452000D03*
X130784000Y-125452000D03*
D32*
X131699000Y-124702000D03*
D33*
X132224000Y-123952000D03*
D11*
X121920000Y-129540000D03*
D19*
X165989000Y-104267000D03*
D20*
X165989000Y-101727000D03*
X165989000Y-99187000D03*
M02*
